<svg width="100" height="100" viewBox="0 0 100 100" fill="none" xmlns="http://www.w3.org/2000/svg">
<rect width="100" height="100" fill="#E5E5E5"/>
<g id="Framing">
<rect id="Rectangle 1" width="100" height="100" fill="black"/>
<rect id="Background" x="5" y="5" width="90" height="90" fill="white"/>
<path id="Rectangle 8" d="M72.8276 79.2986L90.7042 48.3355L99.8063 53.2754L99.8675 74.3619L99.9195 85.5781L100 95L72.8276 79.2986Z" fill="black"/>
<circle id="Ellipse 2" cx="13.5" cy="86.5" r="13.5" fill="black"/>
<circle id="Ellipse 4" cx="15" cy="15" r="15" fill="black"/>
<circle id="Ellipse 6" cx="80" cy="20" r="20" fill="black"/>
<rect id="Rectangle 12" x="41.6256" y="88.2369" width="23" height="23" transform="rotate(-60 41.6256 88.2369)" fill="black"/>
<path id="Rectangle 11" d="M83.651 95.7925L68 96.3979L77.0326 81.0824L95.5154 91.9321L95.3892 95.3384L89.5201 95.5654L86.2595 95.6916L83.651 95.7925Z" fill="black"/>
<rect id="Rectangle 3" y="32" width="100" height="35" fill="black"/>
</g>
<g id="Line Art">
<path id="Vector 1" d="M69.8108 2C60.3919 5.85185 45.5432 17.3111 61.5 32.3333" stroke="black" stroke-width="2"/>
<path id="Vector 2" d="M59.6776 2.48148C50.2587 6.33333 35.4101 17.7926 51.3668 32.8148" stroke="black" stroke-width="2"/>
<path id="Vector 3" d="M49.7047 2.48148C40.2858 6.33333 25.4371 17.7926 41.3939 32.8148" stroke="black" stroke-width="2"/>
<path id="Vector 4" d="M41.9479 2.48148C32.529 6.33333 17.6803 17.7926 33.6371 32.8148" stroke="black" stroke-width="2"/>
<path id="Vector 5" d="M33.083 2.48148C23.6641 6.33333 8.81548 17.7926 24.7722 32.8148" stroke="black" stroke-width="2"/>
<path id="Vector 6" d="M25.3263 2.48148C15.9074 6.33333 1.05873 17.7926 17.0155 32.8148" stroke="black" stroke-width="2"/>
<path id="Vector 7" d="M16.4614 2.48148C7.04251 6.33333 -7.80614 17.7926 8.15062 32.8148" stroke="black" stroke-width="2"/>
<path id="Vector 8" d="M44.3243 93V94H47.69L44.8703 92.1622L44.3243 93ZM35.4595 87.2222L34.6827 86.5925L33.984 87.4542L34.9134 88.06L35.4595 87.2222ZM52.6351 66.037L53.0821 65.1425L52.364 64.7836L51.8584 65.4073L52.6351 66.037ZM74.7973 77.1111L74.3503 78.0057L75.1489 78.4047L75.6356 77.6563L74.7973 77.1111ZM82 66.037L82.8383 66.5823L83.8433 65.037H82V66.037ZM59.8378 66.037V65.037L59.427 66.9488L59.8378 66.037ZM74.7973 72.7778L74.3865 73.6895L75.2542 74.0805L75.6876 73.2331L74.7973 72.7778ZM77.0135 68.4444L77.9038 68.8998L78.6481 67.4444H77.0135V68.4444ZM72.5811 67.4444C72.0288 67.4444 71.5811 67.8922 71.5811 68.4444C71.5811 68.9967 72.0288 69.4444 72.5811 69.4444V67.4444ZM48.499 65.4532C40.7719 76.1971 34.5891 82.8743 30.0237 86.8536C27.7405 88.8436 25.8758 90.1466 24.4377 90.9464C22.9658 91.7651 22.0408 92 21.6081 92V94C22.5605 94 23.8518 93.5609 25.4098 92.6943C27.0017 91.8089 28.9808 90.4157 31.3378 88.3613C36.0528 84.2516 42.3363 77.4473 50.1226 66.6209L48.499 65.4532ZM21.6081 94H44.3243V92H21.6081V94ZM44.8703 92.1622L36.0055 86.3845L34.9134 88.06L43.7783 93.8378L44.8703 92.1622ZM36.2362 87.852L53.4119 66.6668L51.8584 65.4073L34.6827 86.5925L36.2362 87.852ZM52.1881 66.9316L74.3503 78.0057L75.2443 76.2166L53.0821 65.1425L52.1881 66.9316ZM75.6356 77.6563L82.8383 66.5823L81.1617 65.4918L73.959 76.5659L75.6356 77.6563ZM82 65.037H59.8378V67.037H82V65.037ZM59.427 66.9488L74.3865 73.6895L75.2081 71.8661L60.2487 65.1253L59.427 66.9488ZM75.6876 73.2331L77.9038 68.8998L76.1232 67.9891L73.907 72.3224L75.6876 73.2331ZM77.0135 67.4444H72.5811V69.4444H77.0135V67.4444Z" fill="black"/>
<path id="Vector 9" d="M16.6725 93V94H19.3046L17.3365 92.2523L16.6725 93ZM10.1661 87.2222L9.30676 86.7109L8.88412 87.4211L9.50213 87.97L10.1661 87.2222ZM22.7721 66.037L23.3349 65.2104L22.4563 64.6123L21.9128 65.5257L22.7721 66.037ZM39.0379 77.1111L38.4752 77.9377L39.4384 78.5935L39.9404 77.5419L39.0379 77.1111ZM44.3243 66.037L45.2268 66.4678L45.9098 65.037H44.3243V66.037ZM28.0585 66.037V65.037H24.5184L27.5353 66.8892L28.0585 66.037ZM39.0379 72.7778L38.5147 73.63L39.548 74.2644L39.9742 73.1292L39.0379 72.7778ZM40.6645 68.4444L41.6007 68.7959L42.108 67.4444H40.6645V68.4444ZM37.4114 67.4444C36.8591 67.4444 36.4114 67.8922 36.4114 68.4444C36.4114 68.9967 36.8591 69.4444 37.4114 69.4444V67.4444ZM19.4479 65.5702C13.7744 76.3185 9.23768 82.9923 5.89389 86.9633C4.22103 88.9499 2.8637 90.2397 1.82956 91.0234C1.31255 91.4151 0.892074 91.6684 0.567177 91.8201C0.230649 91.9773 0.0513261 92 0 92V94C0.45698 94 0.938456 93.8542 1.41363 93.6322C1.90043 93.4048 2.44256 93.0682 3.03748 92.6174C4.22717 91.7159 5.69094 90.3093 7.42374 88.2515C10.8913 84.1336 15.5041 77.326 21.2166 66.5039L19.4479 65.5702ZM0 94H16.6725V92H0V94ZM17.3365 92.2523L10.8301 86.4745L9.50213 87.97L16.0084 93.7477L17.3365 92.2523ZM11.0255 87.7336L23.6315 66.5484L21.9128 65.5257L9.30676 86.7109L11.0255 87.7336ZM22.2094 66.8637L38.4752 77.9377L39.6007 76.2845L23.3349 65.2104L22.2094 66.8637ZM39.9404 77.5419L45.2268 66.4678L43.4219 65.6062L38.1355 76.6803L39.9404 77.5419ZM44.3243 65.037H28.0585V67.037H44.3243V65.037ZM27.5353 66.8892L38.5147 73.63L39.5611 71.9256L28.5817 65.1848L27.5353 66.8892ZM39.9742 73.1292L41.6007 68.7959L39.7283 68.093L38.1017 72.4264L39.9742 73.1292ZM40.6645 67.4444H37.4114V69.4444H40.6645V67.4444Z" fill="black"/>
<path id="Vector 10" d="M24.3784 70.3704C26.1514 71.1407 33.2432 76.4691 36.5676 79.037L26.5946 87.2222C27.1486 82.8889 26.5946 74.1259 19.9459 73.7407" stroke="black" stroke-width="2" stroke-linecap="round"/>
<path id="Vector 11" d="M29.3649 80.4815L32.6892 78.0741L23.8243 72.7778C26.2252 75.3457 30.6946 80.4815 29.3649 80.4815Z" stroke="black" stroke-width="2" stroke-linejoin="round"/>
<path id="Vector 12" d="M3.32432 69.4074H14.4054M1.10811 72.7778V67H17.7297L14.4054 71.8148C12.5586 70.5309 7.31351 68.9259 1.10811 72.7778Z" stroke="black" stroke-width="2" stroke-linecap="round" stroke-linejoin="round"/>
<path id="Vector 13" d="M50.4189 15.4815V24.1481M53.1892 28.963C50.973 27.8395 46.5405 24.3407 46.5405 19.3333C46.5405 14.3259 50.973 11.1481 53.1892 10.1852V28.963Z" stroke="black" stroke-width="2" stroke-linecap="round" stroke-linejoin="round"/>
<path id="Vector 14" d="M35.4595 11.1481C30.1405 17.6963 28.0721 23.1852 27.7027 25.1111M42.6622 2C37.3432 8.54815 34.7207 13.5556 34.3514 15.4815" stroke="black" stroke-width="2" stroke-linecap="round" stroke-linejoin="round"/>
<path id="Vector 15" d="M36.5676 6.33333C31.2486 12.8815 29.1802 18.3704 28.8108 20.2963" stroke="black" stroke-width="2" stroke-linecap="round" stroke-linejoin="round"/>
<path id="Vector 16" d="M45.9865 2L50.973 7.2963L38.7838 10.1852L44.3243 17.8889L36.5676 26.0741L50.4189 32.3333" stroke="black" stroke-width="2" stroke-linecap="round" stroke-linejoin="round"/>
<path id="Vector 17" d="M41 17.8889L38.2297 14.5185C35.127 16.4444 35.8288 20.1358 36.5676 21.7407L41 17.8889Z" stroke="black" stroke-width="2" stroke-linecap="round" stroke-linejoin="round"/>
<path id="Ellipse 7" d="M39.6757 17.9259C39.6757 18.4782 39.228 18.9259 38.6757 18.9259C38.1234 18.9259 37.6757 18.4782 37.6757 17.9259C37.6757 17.3736 38.1234 16.9259 38.6757 16.9259C39.228 16.9259 39.6757 17.3736 39.6757 17.9259Z" fill="black"/>
<path id="Vector 18" d="M22.7162 29.9259L29.3649 27.5185" stroke="black" stroke-width="2" stroke-linecap="round" stroke-linejoin="round"/>
<path id="Vector 19" d="M21.0541 28.4815L27.1486 24.6296" stroke="black" stroke-width="2" stroke-linecap="round" stroke-linejoin="round"/>
<path id="Vector 20" d="M23.8243 32.3333L31.027 30.4074" stroke="black" stroke-width="2" stroke-linecap="round" stroke-linejoin="round"/>
<path id="Vector 21" d="M34.3514 15.4815C32.5045 19.6543 29.0324 28.1926 29.9189 28.963C30.8054 29.7333 33.2432 25.1111 34.3514 22.7037C33.4279 25.9136 31.9135 32.3333 33.2432 32.3333C34.573 32.3333 36.3829 29.1235 37.1216 27.5185V32.3333H41.5541" stroke="black" stroke-width="2" stroke-linecap="round" stroke-linejoin="round"/>
</g>
<g id="Shapes">
<path id="Rectangle 9" d="M78 77.9808L92.9821 52.0311L100 56.2355L100 77.7254L100 84.8154L100 90.5L78 77.9808Z" fill="#57FFB3"/>
<circle id="Ellipse 1" cx="15" cy="85" r="10" fill="#FF5757"/>
<circle id="Ellipse 3" cx="12.5" cy="12.5" r="12.5" fill="#57E1FF"/>
<circle id="Ellipse 5" cx="85" cy="20" r="15" fill="#57FFB3"/>
<rect id="Rectangle 5" x="45" y="86.7224" width="17" height="17" transform="rotate(-60 45 86.7224)" fill="#57E1FF"/>
<path id="Rectangle 10" d="M86 95L74 95L80.5 84L95 92.5L95 95L90.5 95L88 95L86 95Z" fill="#FF5757"/>
</g>
<g id="Name">
<rect id="Rectangle 4" x="10" y="35" width="40" height="5" fill="#57FFB3"/>
<path id="Polygon 1" d="M64.5 49L58.0048 35.5H70.9952L64.5 49Z" fill="#FF5757"/>
<g id="TERRAN" filter="url(#filter0_d_0_1)">
<path d="M13.0904 61V46.7H17.5404V43.15H5.06543V46.7H9.51543V61H13.0904ZM29.4873 61V57.425H23.8123V53.85H28.5123V50.275H23.8123V46.7H29.1873V43.125H20.2373V61H29.4873ZM41.735 61H45.785L41.635 53.625C46.885 52.1 46.26 43.125 39.885 43.125H32.835V61H36.41V54.175H38.135L41.735 61ZM36.41 50.7V46.7H39.56C41.985 46.7 41.985 50.7 39.56 50.7H36.41ZM57.067 61H61.117L56.967 53.625C62.217 52.1 61.592 43.125 55.217 43.125H48.167V61H51.742V54.175H53.467L57.067 61ZM51.742 50.7V46.7H54.892C57.317 46.7 57.317 50.7 54.892 50.7H51.742ZM61.899 61H65.949L66.649 59.075H72.574L73.299 61H77.324L69.799 42.475H69.424L61.899 61ZM67.949 55.725L69.624 51.075L71.249 55.725H67.949ZM83.407 51.275L92.457 61.375H93.407V43.15H89.807V53.25L80.782 42.75H79.832V61H83.407V51.275Z" fill="white"/>
</g>
</g>
<defs>
<filter id="filter0_d_0_1" x="1.06543" y="42.475" width="96.3416" height="26.9" filterUnits="userSpaceOnUse" color-interpolation-filters="sRGB">
<feFlood flood-opacity="0" result="BackgroundImageFix"/>
<feColorMatrix in="SourceAlpha" type="matrix" values="0 0 0 0 0 0 0 0 0 0 0 0 0 0 0 0 0 0 127 0" result="hardAlpha"/>
<feOffset dy="4"/>
<feGaussianBlur stdDeviation="2"/>
<feComposite in2="hardAlpha" operator="out"/>
<feColorMatrix type="matrix" values="0 0 0 0 0 0 0 0 0 0 0 0 0 0 0 0 0 0 0.25 0"/>
<feBlend mode="normal" in2="BackgroundImageFix" result="effect1_dropShadow_0_1"/>
<feBlend mode="normal" in="SourceGraphic" in2="effect1_dropShadow_0_1" result="shape"/>
</filter>
</defs>
</svg>
