<svg width="300" height="100" viewBox="0 0 300 100" fill="none" xmlns="http://www.w3.org/2000/svg">
<rect width="300" height="100" fill="#E5E5E5"/>
<rect id="Rectangle 1" width="300" height="100" fill="black"/>
<g id="Name">
<g id="Rectangle 4" filter="url(#filter0_d_2_6)">
<rect x="30" y="11.1111" width="120" height="13.8889" fill="#57FFB3"/>
</g>
<g id="Polygon 1" filter="url(#filter1_d_2_6)">
<path d="M193.5 50L174.014 12.5L212.986 12.5L193.5 50Z" fill="#FF5757"/>
</g>
<g id="TERRAN" filter="url(#filter2_d_2_6)">
<path d="M11.6306 31.4278H46.6556C48.0056 31.4278 49.0556 30.3028 49.0556 28.9528C49.0556 27.5278 48.0056 26.4778 46.6556 26.4778H11.6306C10.2056 26.4778 9.08057 27.5278 9.08057 28.9528C9.08057 30.3028 10.2056 31.4278 11.6306 31.4278ZM11.6306 41.4028H21.5306V78.9778C21.5306 80.4028 22.7306 81.5278 24.0806 81.5278C25.5056 81.5278 26.6306 80.4028 26.6306 78.9778V39.0028C26.6306 37.5778 25.5056 36.4528 24.0806 36.4528H11.6306C10.2056 36.4528 9.08057 37.5778 9.08057 39.0028C9.08057 40.3528 10.2056 41.4028 11.6306 41.4028ZM46.6556 36.4528H34.0556C32.7056 36.4528 31.5806 37.5778 31.5806 39.0028V78.9778C31.5806 80.4028 32.7056 81.5278 34.0556 81.5278C35.4806 81.5278 36.6056 80.4028 36.6056 78.9778V41.4028H46.6556C48.0056 41.4028 49.0556 40.3528 49.0556 39.0028C49.0556 37.5778 48.0056 36.4528 46.6556 36.4528ZM85.5847 76.5028H62.1847V31.4278H85.5847C87.0097 31.4278 88.1347 30.3028 88.1347 28.8778C88.1347 27.5278 87.0097 26.4028 85.5847 26.4028H59.6347C58.2847 26.4028 57.1597 27.5278 57.1597 28.8778V79.0528C57.1597 80.4028 58.2847 81.5278 59.6347 81.5278H85.5847C87.0097 81.5278 88.1347 80.4028 88.1347 79.0528C88.1347 77.6278 87.0097 76.5028 85.5847 76.5028ZM85.5847 36.4528H69.6847C68.2597 36.4528 67.1347 37.5028 67.1347 38.9278V48.9778C67.1347 50.3278 68.2597 51.4528 69.6847 51.4528H80.9347C82.3597 51.4528 83.4847 50.3278 83.4847 48.9778C83.4847 47.5528 82.3597 46.4278 80.9347 46.4278H72.1597V41.4028H85.5847C87.0097 41.4028 88.1347 40.2778 88.1347 38.9278C88.1347 37.5028 87.0097 36.4528 85.5847 36.4528ZM80.9347 56.4778H69.6847C68.2597 56.4778 67.1347 57.6028 67.1347 58.9528V69.0028C67.1347 70.3528 68.2597 71.4778 69.6847 71.4778H85.5847C87.0097 71.4778 88.1347 70.3528 88.1347 69.0028C88.1347 67.5778 87.0097 66.4528 85.5847 66.4528H72.1597V61.5028H80.9347C82.3597 61.5028 83.4847 60.3778 83.4847 58.9528C83.4847 57.6028 82.3597 56.4778 80.9347 56.4778ZM103.2 79.0528V31.4278H120.45C123.825 31.4278 126.9 32.7778 129.15 35.0278C136.875 42.8278 131.475 56.4778 120.45 56.4778C118.575 56.4778 117.075 58.6528 118.575 60.6028L132.45 80.4778C134.25 83.1778 138.375 80.2528 136.5 77.5528L124.875 60.9028C127.875 60.1528 130.575 58.5028 132.75 56.3278C143.55 45.2278 135.825 26.4028 120.45 26.4028H100.725C99.3753 26.4028 98.1753 27.5278 98.1753 28.8778V79.0528C98.1753 82.3528 103.2 82.3528 103.2 79.0528ZM119.625 51.4528C123.75 51.4528 127.2 48.2278 127.2 44.0278C127.2 40.2028 124.2 36.3778 119.625 36.3778H110.7C107.4 36.3778 107.4 41.4028 110.7 41.4028H119.625C121.05 41.4028 122.25 42.4528 122.25 43.9528C122.25 46.8778 119.475 46.5028 117.15 46.5028C113.1 46.5028 113.25 51.2278 117.15 51.4528C117.975 51.5278 118.95 51.4528 119.625 51.4528ZM124.275 77.5528L112.8 61.1278C111.375 59.2528 108.225 60.0028 108.225 62.7028V79.0528C108.225 82.3528 113.25 82.3528 113.25 79.0528V70.5028L120.15 80.4778C122.1 83.1778 126.15 80.2528 124.275 77.5528ZM150.002 79.0528V31.4278H167.252C170.627 31.4278 173.702 32.7778 175.952 35.0278C183.677 42.8278 178.277 56.4778 167.252 56.4778C165.377 56.4778 163.877 58.6528 165.377 60.6028L179.252 80.4778C181.052 83.1778 185.177 80.2528 183.302 77.5528L171.677 60.9028C174.677 60.1528 177.377 58.5028 179.552 56.3278C190.352 45.2278 182.627 26.4028 167.252 26.4028H147.527C146.177 26.4028 144.977 27.5278 144.977 28.8778V79.0528C144.977 82.3528 150.002 82.3528 150.002 79.0528ZM166.427 51.4528C170.552 51.4528 174.002 48.2278 174.002 44.0278C174.002 40.2028 171.002 36.3778 166.427 36.3778H157.502C154.202 36.3778 154.202 41.4028 157.502 41.4028H166.427C167.852 41.4028 169.052 42.4528 169.052 43.9528C169.052 46.8778 166.277 46.5028 163.952 46.5028C159.902 46.5028 160.052 51.2278 163.952 51.4528C164.777 51.5278 165.752 51.4528 166.427 51.4528ZM171.077 77.5528L159.602 61.1278C158.177 59.2528 155.027 60.0028 155.027 62.7028V79.0528C155.027 82.3528 160.052 82.3528 160.052 79.0528V70.5028L166.952 80.4778C168.902 83.1778 172.952 80.2528 171.077 77.5528ZM191.854 79.5028L209.929 33.9778L228.004 79.5028C228.529 80.7778 230.029 81.3778 231.304 80.9278C232.579 80.3278 233.179 78.9028 232.654 77.6278L212.254 26.4778C212.029 25.8778 211.579 25.2778 210.829 25.0528C209.629 24.5278 208.129 25.1278 207.604 26.4778L187.129 77.6278C186.679 78.9028 187.354 80.3278 188.554 80.9278C189.829 81.3778 191.254 80.7778 191.854 79.5028ZM206.254 66.5278H213.529C214.954 66.5278 216.154 65.4028 216.154 63.9778C216.154 63.6028 216.079 63.3028 215.929 63.0028L212.254 54.0028C211.729 52.8028 210.304 52.2028 208.954 52.7278C207.754 53.1778 207.154 54.6778 207.604 55.9528L209.854 61.5028H206.254C204.904 61.5028 203.779 62.5528 203.779 63.9778C203.779 65.4028 204.904 66.5278 206.254 66.5278ZM202.579 79.5028L203.854 76.5778H216.004L217.204 79.5028C217.729 80.8528 219.229 81.3778 220.504 80.9278C221.779 80.3278 222.304 78.9028 221.854 77.6278L220.054 73.2778C219.754 72.3028 218.779 71.4778 217.654 71.4778H202.129C201.229 71.4778 200.254 72.1528 199.804 73.0528L198.004 77.6278C197.479 78.9028 198.079 80.3278 199.354 80.9278C200.704 81.3778 202.129 80.7778 202.579 79.5028ZM249.937 30.3778L271.687 61.5778C272.512 62.7028 274.012 63.0028 275.137 62.1778C275.887 61.7278 276.262 60.9028 276.262 60.0778V28.8778C276.262 27.5278 275.137 26.4778 273.787 26.4778C272.437 26.4778 271.237 27.5278 271.237 28.8778V52.2028L253.987 27.5278C253.237 26.4028 251.662 26.0278 250.537 26.9278C249.412 27.6778 249.112 29.1778 249.937 30.3778ZM245.362 79.0528V28.8778C245.362 27.5278 244.312 26.4778 242.887 26.4778C241.537 26.4778 240.412 27.5278 240.412 28.8778V79.0528C240.412 80.4028 241.537 81.6028 242.887 81.6028C244.312 81.6028 245.362 80.4028 245.362 79.0528ZM286.312 79.0528V28.8778C286.312 27.5278 285.187 26.4778 283.762 26.4778C282.412 26.4778 281.287 27.5278 281.287 28.8778V79.0528C281.287 80.4028 282.412 81.6028 283.762 81.6028C285.187 81.6028 286.312 80.4028 286.312 79.0528ZM276.787 77.6278L254.962 46.4278C254.212 45.2278 252.562 44.9278 251.512 45.8278C250.762 46.2778 250.462 47.0278 250.462 47.8528V79.0528C250.462 80.4028 251.512 81.5278 252.862 81.5278C254.287 81.5278 255.412 80.4028 255.412 79.0528V55.8028L272.662 80.4778C273.487 81.6028 274.987 81.9028 276.187 81.1528C277.237 80.2528 277.537 78.7528 276.787 77.6278Z" fill="white"/>
</g>
</g>
<defs>
<filter id="filter0_d_2_6" x="26" y="11.1111" width="128" height="21.8889" filterUnits="userSpaceOnUse" color-interpolation-filters="sRGB">
<feFlood flood-opacity="0" result="BackgroundImageFix"/>
<feColorMatrix in="SourceAlpha" type="matrix" values="0 0 0 0 0 0 0 0 0 0 0 0 0 0 0 0 0 0 127 0" result="hardAlpha"/>
<feOffset dy="4"/>
<feGaussianBlur stdDeviation="2"/>
<feComposite in2="hardAlpha" operator="out"/>
<feColorMatrix type="matrix" values="0 0 0 0 0 0 0 0 0 0 0 0 0 0 0 0 0 0 0.25 0"/>
<feBlend mode="normal" in2="BackgroundImageFix" result="effect1_dropShadow_2_6"/>
<feBlend mode="normal" in="SourceGraphic" in2="effect1_dropShadow_2_6" result="shape"/>
</filter>
<filter id="filter1_d_2_6" x="170.014" y="12.5" width="46.9711" height="45.5" filterUnits="userSpaceOnUse" color-interpolation-filters="sRGB">
<feFlood flood-opacity="0" result="BackgroundImageFix"/>
<feColorMatrix in="SourceAlpha" type="matrix" values="0 0 0 0 0 0 0 0 0 0 0 0 0 0 0 0 0 0 127 0" result="hardAlpha"/>
<feOffset dy="4"/>
<feGaussianBlur stdDeviation="2"/>
<feComposite in2="hardAlpha" operator="out"/>
<feColorMatrix type="matrix" values="0 0 0 0 0 0 0 0 0 0 0 0 0 0 0 0 0 0 0.25 0"/>
<feBlend mode="normal" in2="BackgroundImageFix" result="effect1_dropShadow_2_6"/>
<feBlend mode="normal" in="SourceGraphic" in2="effect1_dropShadow_2_6" result="shape"/>
</filter>
<filter id="filter2_d_2_6" x="5.08057" y="24.5278" width="285.231" height="66.65" filterUnits="userSpaceOnUse" color-interpolation-filters="sRGB">
<feFlood flood-opacity="0" result="BackgroundImageFix"/>
<feColorMatrix in="SourceAlpha" type="matrix" values="0 0 0 0 0 0 0 0 0 0 0 0 0 0 0 0 0 0 127 0" result="hardAlpha"/>
<feOffset dy="4"/>
<feGaussianBlur stdDeviation="2"/>
<feComposite in2="hardAlpha" operator="out"/>
<feColorMatrix type="matrix" values="0 0 0 0 0 0 0 0 0 0 0 0 0 0 0 0 0 0 0.25 0"/>
<feBlend mode="normal" in2="BackgroundImageFix" result="effect1_dropShadow_2_6"/>
<feBlend mode="normal" in="SourceGraphic" in2="effect1_dropShadow_2_6" result="shape"/>
</filter>
</defs>
</svg>
